PathFileType	4	(X/Y/Z)	Kaydara	
DataRate	CameraRate	NumFrames	NumMarkers	Units	OrigDataRate	OrigDataStartFrame	OrigNumFrames	
60.00	60.00	4	74	mm	60.00	288	201	
Frame#	Time	N_lasi			N_rasi			N_rpsi			N_lpsi			N_fneck			N_bneck			N_fhead			N_rhead			N_lhead			N_rshld			N_relbtop			N_relbext			N_relblow			N_rwrext			N_rwrtop			N_rwrlow			N_lshld			N_lelbext			N_lelblow			N_lelbtop			N_lwrext			N_lwrtop			N_lwrlow			N_rtopleg			N_ltopleg			N_rkneefr			N_rkneebk			N_rkneeis			N_lkneefr			N_lknssbk			N_lkneeis			N_rankfr			N_rankis			N_rankbk			N_lankfr			N_lankbk			N_lankis			D_lasi			D_rasi			D_rpsi			D_lpsi			D_fneck			D_bneck			D_fhead			D_rhead			D_lhead			D_rshld			D_relbtop			D_relbext			D_relblow			D_rwrext			D_rwrtop			D_rwrlow			D_lshld			D_lelbext			D_lelblow			D_lelbtop			D_lwrext			D_lwrtop			D_lwrlow			D_rtopleg			D_ltopleg			D_rkneefr			D_rkneebk			D_rkneeis			D_lkneefr			D_lknssbk			D_lkneeis			D_rankfr			D_rankis			D_rankbk			D_lankfr			D_lankbk			D_lankis			
		X1	Y1	Z1	X2	Y2	Z2	X3	Y3	Z3	X4	Y4	Z4	X5	Y5	Z5	X6	Y6	Z6	X7	Y7	Z7	X8	Y8	Z8	X9	Y9	Z9	X10	Y10	Z10	X11	Y11	Z11	X12	Y12	Z12	X13	Y13	Z13	X14	Y14	Z14	X15	Y15	Z15	X16	Y16	Z16	X17	Y17	Z17	X18	Y18	Z18	X19	Y19	Z19	X20	Y20	Z20	X21	Y21	Z21	X22	Y22	Z22	X23	Y23	Z23	X24	Y24	Z24	X25	Y25	Z25	X26	Y26	Z26	X27	Y27	Z27	X28	Y28	Z28	X29	Y29	Z29	X30	Y30	Z30	X31	Y31	Z31	X32	Y32	Z32	X33	Y33	Z33	X34	Y34	Z34	X35	Y35	Z35	X36	Y36	Z36	X37	Y37	Z37	X38	Y38	Z38	X39	Y39	Z39	X40	Y40	Z40	X41	Y41	Z41	X42	Y42	Z42	X43	Y43	Z43	X44	Y44	Z44	X45	Y45	Z45	X46	Y46	Z46	X47	Y47	Z47	X48	Y48	Z48	X49	Y49	Z49	X50	Y50	Z50	X51	Y51	Z51	X52	Y52	Z52	X53	Y53	Z53	X54	Y54	Z54	X55	Y55	Z55	X56	Y56	Z56	X57	Y57	Z57	X58	Y58	Z58	X59	Y59	Z59	X60	Y60	Z60	X61	Y61	Z61	X62	Y62	Z62	X63	Y63	Z63	X64	Y64	Z64	X65	Y65	Z65	X66	Y66	Z66	X67	Y67	Z67	X68	Y68	Z68	X69	Y69	Z69	X70	Y70	Z70	X71	Y71	Z71	X72	Y72	Z72	X73	Y73	Z73	X74	Y74	Z74	

101	4.783	-1141.45775	1086.26732	541.35540	-1386.56326	1126.91750	503.02887	-1393.67386	1184.72977	223.41318	-1044.83528	1161.28258	271.29671	-1250.53787	1539.00192	262.64278	-1202.45499	1637.84393	361.48006	-1112.60284	1675.46448	598.57895	-1232.79144	1741.74164	447.66624	-1078.75732	1710.83328	434.72378	-1453.44101	1505.70435	386.34312	-1581.64261	1207.36908	337.01176	-1635.94681	1171.57219	344.82967	-1546.01517	1216.26579	418.61759	-1571.72043	923.08022	486.30260	-1535.64728	940.13260	514.50958	-1494.87671	934.55757	488.69270	-960.72906	1469.27155	325.26012	-1008.18619	1129.57726	293.41007	-920.14618	1134.88068	346.89373	-926.53595	1139.66309	259.46369	-934.93904	839.11789	316.57734	-938.59055	835.19150	363.84861	-993.40752	844.43260	360.07183	-1497.32819	986.47057	365.84843	-1016.78749	999.25423	335.26463	-1517.40952	501.51722	433.39306	-1482.04529	562.60487	304.83597	-1384.90021	507.14355	400.02457	-1197.53807	519.79328	512.39819	-1144.31213	523.27793	391.27106	-1286.29349	519.52179	398.71841	-1468.78906	255.31820	84.83997	-1394.36050	244.29720	117.36386	-1385.93842	291.41766	48.20014	-1230.47356	159.53622	470.67066	-1210.80238	153.39183	390.63232	-1292.51221	166.16367	425.24773	279.38581	1030.93414	103.68708	547.96970	1056.18546	7.18768	564.84035	1152.12387	216.09087	358.59615	1126.63994	282.71927	372.15275	1530.65735	32.56158	438.68832	1610.17639	128.66068	274.17934	1700.07172	-41.55168	448.05698	1736.86920	4.88166	343.58593	1726.76987	119.89817	595.35988	1485.00854	-8.28055	712.00127	1162.28127	31.57268	637.68734	1145.31044	33.50417	693.72444	1180.54596	-51.22121	732.65816	927.12524	-67.77040	700.61821	933.46031	-116.60975	655.54420	932.59453	-84.68520	242.04723	1495.71518	240.40993	264.28772	1158.69713	249.78308	176.22257	1197.42088	281.97811	239.02275	1168.03284	325.60593	143.54401	938.18878	278.28070	126.93977	946.47682	237.64896	167.74361	946.28693	205.88482	632.58595	1010.40138	63.26918	275.74982	995.18845	249.77371	524.40418	497.86522	-83.02782	607.16602	503.94329	-12.33039	500.02373	476.96430	44.01529	289.81157	441.79230	92.99089	302.38964	504.74560	199.18667	393.35438	456.57433	110.63123	571.58604	150.10865	-71.11310	535.16819	145.49239	-12.82584	616.54987	143.25575	-3.51689	440.36331	226.80183	361.54812	435.79117	274.73495	416.96293	500.91576	261.97540	358.95996 
102	4.800	-1137.47604	1086.88568	554.18884	-1384.46426	1128.98392	518.21918	-1392.47604	1188.35365	239.61121	-1044.06967	1163.87650	282.61072	-1248.89084	1541.98364	276.76151	-1200.80795	1640.82565	375.59875	-1109.51973	1678.52127	612.16400	-1230.40642	1744.72763	461.87054	-1076.49002	1714.11316	448.21877	-1451.53702	1508.12881	402.12341	-1578.30307	1209.06563	352.72968	-1632.47162	1173.28545	360.51067	-1542.40417	1217.99545	434.26167	-1566.58142	924.90173	501.58810	-1531.60492	942.57500	529.91741	-1490.30777	937.00699	504.91848	-959.20029	1472.57233	337.40894	-1007.79556	1131.71707	307.58215	-919.24507	1137.24876	361.82602	-926.28387	1141.22810	274.44740	-935.68771	841.57028	334.36169	-938.99544	837.62642	381.84345	-993.19221	846.31210	378.33660	-1496.91391	989.87976	383.68420	-1016.05904	1000.43747	343.08243	-1515.26413	508.54050	468.25119	-1481.96518	566.47915	337.92515	-1383.09433	513.19977	431.68308	-1195.75531	518.87798	515.20248	-1144.08226	523.96454	393.89481	-1286.09497	520.09178	402.97626	-1474.45908	256.78335	122.42640	-1399.84222	246.35981	153.54786	-1392.75101	292.26973	83.29907	-1230.05333	159.36741	470.84312	-1211.04477	153.78468	390.66235	-1292.42706	166.55005	425.96092	273.96029	1034.98169	90.19279	541.25465	1058.47321	-10.28587	562.01775	1155.19783	198.11371	357.06074	1130.92224	268.31085	364.79481	1534.77005	19.25591	434.53514	1613.68713	113.55359	265.90015	1705.14099	-52.01674	441.44722	1740.49088	-10.40258	340.12329	1731.05713	107.43125	586.24130	1488.13644	-28.01290	702.71538	1164.15634	-0.44963	628.56949	1147.81464	5.19273	679.65622	1184.58107	-81.92417	715.14381	931.37154	-107.20861	680.43381	939.60152	-153.81657	637.35058	938.16788	-119.47266	241.25809	1499.61334	231.69077	263.97650	1162.49275	245.92978	176.08688	1202.27409	279.11314	240.40947	1174.35532	321.05236	144.44910	942.79953	286.45754	126.24787	949.38957	246.27604	165.68830	948.67210	213.05134	626.54133	1011.89957	44.49617	271.20804	1000.29854	235.37380	520.40466	496.89888	-89.56406	603.71471	504.60400	-19.47251	497.13947	477.86343	38.44019	271.21408	451.30161	62.00264	288.15432	512.73151	167.68381	375.46291	464.01226	78.61505	570.17025	149.82413	-72.93788	533.51746	145.80067	-14.41955	615.10441	144.17068	-5.27927	429.08386	235.08888	325.48958	426.04168	282.73563	382.45167	488.63354	270.20510	323.23833 
103	4.817	-1133.54774	1089.01123	566.81499	-1381.79047	1131.29395	533.75957	-1391.52618	1191.59645	255.72227	-1043.87047	1166.06735	294.33254	-1247.32079	1544.66217	290.95434	-1199.23790	1643.50418	389.79164	-1106.44249	1681.62781	625.09590	-1228.23936	1747.41226	476.18736	-1074.36447	1717.11121	461.47419	-1449.62097	1510.43304	418.00190	-1575.19119	1210.75562	368.23757	-1629.32266	1174.97177	376.03691	-1539.21799	1219.67834	449.80625	-1561.95618	926.59103	516.85432	-1527.82669	944.88579	545.77423	-1485.66132	939.35730	521.62140	-957.63710	1475.79056	349.08516	-1007.20985	1134.32510	323.50006	-918.34656	1140.06821	376.39896	-925.89951	1143.03528	289.15203	-936.01273	844.26102	352.36656	-939.49203	840.43129	399.64947	-993.59085	849.23645	399.19777	-1495.43839	993.59818	403.10837	-1015.25162	1001.70883	343.85101	-1511.30325	515.63698	502.47154	-1481.55746	569.84234	370.18093	-1380.54840	519.61956	462.03873	-1195.59303	517.95460	518.14137	-1144.42955	524.81697	395.88631	-1286.81915	521.00410	406.05648	-1479.96384	255.34410	161.60841	-1405.09369	245.44842	190.98591	-1399.55383	290.05213	119.47917	-1229.64172	159.30809	471.05846	-1211.65001	154.22328	390.40215	-1292.99698	166.97765	427.31293	268.23650	1039.34532	77.06034	534.00169	1060.87257	-28.12910	557.85759	1159.53735	178.05046	354.71272	1135.66795	256.24542	357.28088	1538.93539	6.24988	429.94503	1617.29675	98.85344	257.20257	1710.23727	-61.74631	434.18545	1744.28650	-24.98082	336.04904	1735.10544	95.83773	577.29584	1491.61957	-46.80020	692.43286	1166.52184	-32.20469	618.47065	1150.62767	-22.71094	664.73862	1189.24278	-111.76210	696.05965	936.47598	-145.83525	659.02115	946.75552	-190.16542	617.97199	944.60411	-153.65071	240.49538	1503.48907	222.96534	263.19254	1166.49414	241.59546	175.73141	1207.39624	275.92932	241.19028	1180.86899	316.72003	144.99750	948.01498	294.01403	125.85267	953.27209	254.07696	164.33752	951.81717	219.62202	619.97234	1014.45450	26.60419	266.35159	1005.33234	221.12255	517.49397	496.33835	-95.29180	601.24550	505.84682	-26.13225	496.09459	479.26903	34.38614	252.38424	461.73496	32.51580	273.20843	520.80517	139.07048	357.31487	472.57072	47.34212	569.57989	150.10335	-74.61994	532.94525	146.49912	-15.60146	614.38667	145.43485	-6.93514	417.11357	239.70667	287.41825	415.98488	286.21532	345.90099	475.98732	274.13166	284.99554 
104	4.833	-1129.69498	1092.23213	578.94230	-1378.32092	1134.17152	549.56299	-1390.82306	1194.43695	271.91294	-1043.39691	1167.97615	305.51405	-1245.86617	1546.95450	305.16066	-1197.78328	1645.79620	403.99799	-1103.05031	1683.96835	639.02973	-1226.25580	1749.68216	490.47668	-1072.39998	1719.65118	474.70757	-1447.74567	1512.35397	433.91903	-1572.44156	1212.20551	383.71716	-1626.59195	1176.45844	391.54766	-1536.50650	1221.20155	465.34813	-1557.77451	928.02544	532.16644	-1524.46838	946.82930	561.87057	-1481.78558	941.70952	538.47355	-956.18958	1478.74207	360.56049	-1006.43295	1136.86478	337.75082	-917.57660	1142.77115	390.62958	-925.25314	1144.79172	303.42775	-936.22971	846.93535	370.46803	-940.50270	843.07594	417.58450	-994.52873	851.72195	416.00773	-1494.46503	996.80740	421.87534	-1013.97125	1002.89528	356.04668	-1505.56946	522.53704	535.90649	-1480.23529	572.13421	400.62454	-1376.26251	525.77187	490.73547	-1195.11002	517.12673	520.13481	-1145.47607	525.69462	397.47860	-1287.99347	522.29626	409.11633	-1484.93805	251.24319	202.40753	-1409.22028	242.11369	229.74457	-1406.66550	284.97555	156.40253	-1229.33289	159.22568	471.07212	-1212.65182	154.75162	390.14187	-1292.66113	166.80851	427.81971	262.25410	1043.86330	64.28630	525.97309	1063.98491	-45.01789	552.41577	1163.53218	156.68776	352.15034	1139.00764	240.50756	349.35452	1543.12225	-6.55093	424.82880	1620.63766	84.44423	248.01245	1715.19394	-70.68102	426.30932	1747.98935	-39.01843	331.66916	1738.83041	84.55698	568.15804	1495.22690	-64.98930	680.90973	1169.09309	-63.08196	607.18582	1153.78555	-50.20184	649.10278	1194.29199	-140.32087	676.02806	942.53403	-184.00518	636.62193	954.86343	-225.75096	597.53731	951.51787	-187.15557	239.70083	1507.46826	214.32074	261.66630	1170.58739	236.33305	175.44037	1212.55486	272.69318	241.97407	1187.49382	312.24539	145.36356	953.82744	300.68541	125.65070	957.49908	260.69733	163.86683	955.33485	225.73969	612.85080	1017.77023	9.93655	262.39103	1009.53575	209.71287	515.78526	496.21880	-100.58661	599.31690	507.26933	-31.61016	493.59844	480.94997	28.44380	233.67346	472.47009	4.94487	258.41217	527.85831	112.50450	339.09630	481.27182	17.68266	569.47151	150.73870	-76.35697	532.62909	147.65177	-17.00785	613.91006	146.84671	-8.47938	404.01279	240.76075	248.72158	404.85989	285.75159	308.55587	462.99927	274.49547	245.30630 
